# Blender v3.0.0 OBJ File: 'walkable.blend'
# www.blender.org
o Plane.001
v 12.829762 3.813241 3.296688
v 12.829762 3.813241 5.587181
v 5.648865 0.009493 5.487816
v 5.635952 -0.009493 0.642924
v 8.349789 1.449251 2.043580
v 10.781067 2.655868 2.893158
v 10.824111 2.719155 5.487816
v 8.448791 1.594812 5.487816
v -15.632227 0.017754 -1.087209
v -2.470453 0.017753 15.284412
v -15.632225 0.017756 12.282784
v -2.470453 0.017752 -1.087208
v 2.528804 0.017753 15.284412
v 2.528804 0.017751 -1.087208
v 14.022702 0.017751 12.282784
v 14.022701 0.017749 -1.087209
v -15.632225 0.017755 -6.766106
v -2.470453 0.017752 -6.766108
v -18.195660 0.017755 -6.766106
v -18.195660 0.017755 -0.857777
v 2.528804 0.017750 -6.766108
v -2.470453 0.017752 -13.872269
v 2.528804 0.017750 -13.872269
v 14.022701 0.017748 -6.766106
v 16.419300 0.017749 -1.087209
v 16.419302 0.017749 -6.766106
v 25.245239 0.017749 -1.087210
v 25.245239 0.017749 -6.766106
v 16.419300 0.017748 -13.872267
v 25.245241 0.017747 -13.872267
v -24.591732 0.017754 -6.766106
v -24.591732 0.017754 -1.087209
v -24.591732 0.017754 -13.872267
v -18.195662 0.017753 -13.872267
v -16.491980 3.813245 0.993581
v -13.228279 3.813245 5.587181
v -16.491978 3.813244 5.531426
v -13.228279 3.813245 1.006196
v -16.491980 3.813245 -1.068102
v -13.228275 3.813244 -3.335901
v -6.478594 3.813242 1.104915
v -15.947676 3.813243 -6.780187
v -24.585022 3.813248 -6.780186
v -24.587391 3.813245 -1.068102
v -24.566959 3.813247 -13.883169
v -15.913620 3.813244 -13.883169
v -13.223156 3.813244 -6.780187
v -6.478594 3.813242 -3.335901
v -6.465122 3.813242 -6.780186
v -4.150116 3.813242 -3.335901
v -4.067327 3.813241 -6.780186
v -4.150116 3.813242 1.302356
v 3.742350 3.813241 -3.335901
v -4.150116 3.813243 8.618259
v -6.478594 3.813243 8.530554
v -6.478594 3.813244 13.903751
v -4.150118 3.813245 13.991457
v 3.742350 3.813242 8.618259
v 3.742350 3.813243 13.991457
v 3.636695 3.813241 -6.780185
v 5.949991 3.813243 8.530554
v 5.949991 3.813243 13.903751
v 3.742350 3.813242 1.302356
v 5.949991 3.813241 1.104915
v 5.949991 3.813242 -3.335901
v 5.932797 3.813242 -6.780186
v 12.829762 3.813241 1.006195
v 12.829762 3.813241 -3.335901
v 12.823230 3.813241 -6.780185
v 18.398790 3.813240 -3.335901
v 18.393982 3.813240 -6.780185
v 18.013660 3.813241 -1.045095
v 18.013660 3.813241 5.472073
v 23.845945 3.813240 -1.117771
v 23.845945 3.813240 -3.335901
v 23.845943 3.813238 -6.780187
v 18.357296 3.813239 -13.883169
v 23.845943 3.813238 -13.883169
v -13.244236 3.820518 3.145735
v -5.804686 0.000000 5.487815
v -5.781725 0.000000 0.642924
v -8.514151 1.423617 2.043580
v -10.879192 2.755387 2.893158
v -10.955732 2.755388 5.487816
v -8.690189 1.423617 5.487815
vt 0.000000 0.000000
vt 0.000000 0.000000
vt 0.000000 0.000000
vt 0.000000 0.000000
vt 0.000000 0.000000
vt 0.000000 0.000000
vt 0.000000 0.000000
vt 0.000000 0.000000
vt 0.000000 0.000000
vt 0.000000 0.000000
vt 0.000000 0.000000
vt 0.000000 0.000000
vt 0.000000 0.000000
vt 0.000000 0.000000
vt 0.000000 0.000000
vt 0.000000 0.000000
vt 0.000000 0.000000
vt 0.000000 0.000000
vt 0.000000 0.000000
vt 0.000000 0.000000
vt 0.000000 0.000000
vt 0.000000 0.000000
vt 0.000000 0.000000
vt 0.000000 0.000000
vt 0.000000 0.000000
vt 0.000000 0.000000
vt 0.000000 0.000000
vt 0.000000 0.000000
vt 0.000000 0.000000
vt 0.000000 0.000000
vt 0.000000 0.000000
vt 0.000000 0.000000
vt 0.000000 0.000000
vt 0.000000 0.000000
vt 0.000000 0.000000
vt 0.000000 0.000000
vt 0.000000 0.000000
vt 0.000000 0.000000
vt 0.000000 0.000000
vt 0.000000 0.000000
vt 0.000000 0.000000
vt 0.000000 0.000000
vt 0.000000 0.000000
vt 0.000000 0.000000
vt 0.000000 0.000000
vt 0.000000 0.000000
vt 0.000000 0.000000
vt 0.000000 0.000000
vt 0.000000 0.000000
vt 0.000000 0.000000
vt 0.000000 0.000000
vt 0.000000 0.000000
vt 0.000000 0.000000
vt 0.000000 0.000000
vt 0.000000 0.000000
vt 0.000000 0.000000
vt 0.000000 0.000000
vt 0.000000 0.000000
vt 0.000000 0.000000
vt 0.000000 0.000000
vt 0.000000 0.000000
vt 0.000000 0.000000
vt 0.000000 0.000000
vt 0.000000 0.000000
vt 0.000000 0.000000
vt 0.000000 0.000000
vt 0.000000 0.000000
vt 0.000000 0.000000
vt 0.000000 0.000000
vt 0.000000 0.000000
vt 0.000000 0.000000
vt 0.000000 0.000000
vt 0.000000 0.000000
vt 0.000000 0.000000
vt 0.000000 0.000000
vt 0.000000 0.000000
vt 0.000000 0.000000
vt 0.000000 0.000000
vt 0.000000 0.000000
vt 0.000000 0.000000
vt 0.000000 0.000000
vt 0.000000 0.000000
vt 0.000000 0.000000
vt 0.000000 0.000000
vt 0.000000 0.000000
vn -0.4726 0.8813 -0.0022
vn 0.1256 0.9921 0.0033
vn -0.0009 1.0000 0.0008
vn 0.0926 0.9957 0.0050
vn 0.0004 1.0000 -0.0020
vn -0.0004 1.0000 -0.0007
vn 0.0002 1.0000 -0.0003
vn 0.0013 1.0000 0.0009
vn 0.0110 0.9999 -0.0039
vn -0.0002 1.0000 -0.0009
vn 0.0000 1.0000 0.0000
vn 0.0000 1.0000 0.0005
vn 0.0000 1.0000 0.0009
vn -0.0005 1.0000 -0.0003
vn 0.2147 0.9767 0.0006
vn 0.1448 0.9894 0.0028
vn 0.0000 1.0000 -0.0011
vn -0.1780 0.9840 -0.0026
vn 0.4117 0.9112 0.0121
vn 0.0000 0.9999 0.0157
vn -0.4789 0.8779 -0.0000
vn -0.4899 0.8717 -0.0131
vn -0.4926 0.8700 -0.0226
vn -0.4278 0.9038 -0.0149
vn -0.4373 0.8990 -0.0254
vn 0.0026 1.0000 -0.0000
vn -0.2454 0.9694 0.0000
vn 0.4220 0.9066 -0.0001
vn 0.5067 0.8620 0.0149
vn 0.4423 0.8966 0.0226
vn 0.4974 0.8671 0.0254
vn 0.4629 0.8864 0.0022
s off
f 5/1/1 4/2/1 3/3/1
s 1
f 80/4/2 12/5/3 81/6/4
f 80/4/2 11/7/5 10/8/6
f 12/5/3 10/8/6 13/9/7
f 12/5/3 13/9/7 14/10/8
s off
f 14/10/9 3/3/9 4/2/9
f 13/9/10 15/11/10 3/3/10
s 1
f 17/12/11 9/13/12 12/5/3
f 17/12/11 12/5/3 18/14/11
f 18/14/11 12/5/3 14/10/8
f 19/15/11 9/13/12 17/12/11
f 19/15/11 20/16/11 9/13/12
f 18/14/11 14/10/8 21/17/11
f 21/17/11 14/10/8 16/18/13
f 22/19/11 18/14/11 21/17/11
f 22/19/11 21/17/11 23/20/11
f 21/17/11 16/18/13 24/21/11
f 24/21/11 16/18/13 25/22/11
f 24/21/11 25/22/11 26/23/11
f 26/23/11 25/22/11 27/24/11
f 26/23/11 27/24/11 28/25/11
f 29/26/11 26/23/11 28/25/11
f 29/26/11 28/25/11 30/27/11
f 31/28/11 20/16/11 19/15/11
f 31/28/11 32/29/11 20/16/11
f 33/30/11 31/28/11 19/15/11
f 33/30/11 19/15/11 34/31/11
f 35/32/14 37/33/11 36/34/15
f 35/32/14 79/35/16 38/36/17
f 39/37/11 35/32/14 38/36/17
f 39/37/11 38/36/17 40/38/11
f 40/38/11 38/36/17 41/39/11
f 42/40/11 39/37/11 40/38/11
f 43/41/11 39/37/11 42/40/11
f 43/41/11 44/42/11 39/37/11
f 45/43/11 43/41/11 42/40/11
f 45/43/11 42/40/11 46/44/11
f 42/40/11 40/38/11 47/45/11
f 47/45/11 40/38/11 48/46/11
f 40/38/11 41/39/11 48/46/11
f 47/45/11 48/46/11 49/47/11
f 49/47/11 48/46/11 50/48/11
f 49/47/11 50/48/11 51/49/11
f 48/46/11 52/50/11 50/48/11
f 48/46/11 41/39/11 52/50/11
f 53/51/11 51/49/11 50/48/11
f 41/39/11 54/52/11 52/50/11
f 41/39/11 55/53/11 54/52/11
f 54/52/11 55/53/11 56/54/11
f 54/52/11 56/54/11 57/55/11
f 58/56/11 54/52/11 57/55/11
f 58/56/11 57/55/11 59/57/11
f 53/51/11 60/58/11 51/49/11
f 61/59/11 58/56/11 59/57/11
f 61/59/11 59/57/11 62/60/11
f 63/61/11 58/56/11 61/59/11
f 63/61/11 61/59/11 64/62/11
f 53/51/11 63/61/11 64/62/11
f 60/58/11 53/51/11 65/63/11
f 53/51/11 64/62/11 65/63/11
f 60/58/11 65/63/11 66/64/11
f 65/63/11 64/62/11 67/65/11
f 66/64/11 65/63/11 68/66/11
f 65/63/11 67/65/11 68/66/11
f 66/64/11 68/66/11 69/67/11
f 69/67/11 68/66/11 70/68/11
f 69/67/11 70/68/11 71/69/11
f 68/66/11 67/65/11 72/70/11
f 68/66/11 72/70/11 70/68/11
f 67/65/11 73/71/11 72/70/11
f 1/72/18 73/71/11 67/65/11
f 70/68/11 72/70/11 74/73/11
f 70/68/11 74/73/11 75/74/11
f 71/69/11 70/68/11 75/74/11
f 71/69/11 75/74/11 76/75/11
f 77/76/11 71/69/11 76/75/11
f 77/76/11 76/75/11 78/77/11
s off
f 83/78/19 79/35/19 84/79/19
f 14/10/20 4/2/20 16/18/20
s 1
f 12/5/3 9/13/12 81/6/4
s off
f 7/80/21 2/81/21 1/72/21
f 7/80/22 1/72/22 6/82/22
f 3/3/23 8/83/23 5/1/23
f 8/83/24 7/80/24 6/82/24
f 5/1/25 8/83/25 6/82/25
s 1
f 80/4/2 10/8/6 12/5/3
s off
f 14/10/26 13/9/26 3/3/26
s 1
f 35/32/14 36/34/15 79/35/16
f 1/72/18 2/81/27 73/71/11
s off
f 79/35/28 36/34/28 84/79/28
f 84/79/29 85/84/29 83/78/29
f 85/84/30 80/4/30 82/85/30
f 83/78/31 85/84/31 82/85/31
f 80/4/32 81/6/32 82/85/32
