# Blender v3.0.0 OBJ File: ''
# www.blender.org
o Plane
v -4.270852 -0.675269 -2.043580
v 1.928293 -0.954901 -2.945174
v -1.102155 -1.430241 -2.663542
v -2.939081 -1.265995 -2.801312
v 3.513120 -0.250063 -3.306466
v 5.786316 0.000000 -3.306466
v 7.439549 0.000000 -2.020618
v 8.174319 0.000000 0.275539
v 7.255857 0.000000 2.020619
v 4.661199 0.000000 2.594658
v 2.273196 0.000000 2.181350
v 1.033271 0.247755 0.642924
v 0.482193 0.622149 -1.239925
v 0.298501 0.622149 -3.972352
v 0.642924 0.363405 -5.464854
v 0.505155 0.002959 -7.278819
v -0.482193 0.000000 -8.909090
v -2.801311 0.000000 -9.850514
v -4.913776 0.000000 -9.988284
v -6.842548 0.000000 -8.472820
v -7.278818 0.000000 -6.681818
v -7.164010 0.000000 -4.776008
v -6.429239 0.000000 -3.214621
v -5.350045 -0.090625 -2.158389
v -4.638237 -0.090625 -3.421275
v -5.533738 0.000000 -4.408623
v -5.878161 0.000000 -6.130741
v -5.694469 0.000000 -7.600281
v -4.753045 0.000000 -8.702436
v -2.617619 0.000000 -8.702436
v -1.469540 0.000000 -7.761012
v -0.803654 0.072582 -6.727741
v -0.780693 0.422355 -5.304124
v -1.010309 0.622149 -4.018276
v -0.941424 0.622149 -1.239925
v -0.206654 0.100364 1.239924
v 1.997657 0.000000 3.536082
v 4.707122 0.000000 3.949390
v 8.036551 0.000000 3.283504
v 9.758668 0.000000 0.688847
v 8.794282 0.000000 -3.191659
v 6.107778 0.000000 -4.569353
v 3.030927 -0.630710 -4.615276
v 1.034134 -1.207879 -4.185100
v -2.020618 -1.255504 -4.018276
v -3.673851 -0.610938 -3.719775
v 1.120014 0.069642 -1.591646
v 2.261077 0.141895 -0.840930
vt 0.000000 0.000000
vt 0.000000 0.000000
vt 0.000000 0.000000
vt 0.000000 0.000000
vt 0.000000 0.000000
vt 0.000000 0.000000
vt 0.000000 0.000000
vt 0.000000 0.000000
vt 0.000000 0.000000
vt 0.000000 0.000000
vt 0.000000 0.000000
vt 0.000000 0.000000
vt 0.000000 0.000000
vt 0.000000 0.000000
vt 0.000000 0.000000
vt 0.000000 0.000000
vt 0.000000 0.000000
vt 0.000000 0.000000
vt 0.000000 0.000000
vt 0.000000 0.000000
vt 0.000000 0.000000
vt 0.000000 0.000000
vt 0.000000 0.000000
vt 0.000000 0.000000
vt 0.000000 0.000000
vt 0.000000 0.000000
vt 0.000000 0.000000
vt 0.000000 0.000000
vt 0.000000 0.000000
vt 0.000000 0.000000
vt 0.000000 0.000000
vt 0.000000 0.000000
vt 0.000000 0.000000
vt 0.000000 0.000000
vt 0.000000 0.000000
vt 0.000000 0.000000
vt 0.000000 0.000000
vt 0.000000 0.000000
vt 0.000000 0.000000
vt 0.000000 0.000000
vt 0.000000 0.000000
vt 0.000000 0.000000
vt 0.000000 0.000000
vt 0.000000 0.000000
vt 0.000000 0.000000
vt 0.000000 0.000000
vt 0.000000 0.000000
vt 0.000000 0.000000
vn -0.1935 0.9589 -0.2076
vn 0.0000 1.0000 0.0000
vn 0.0375 0.9993 0.0076
vn -0.0199 0.9795 0.2006
vn 0.0054 0.9883 -0.1526
vn 0.0132 0.9710 -0.2388
vn 0.0185 0.9965 -0.0819
vn -0.2769 0.9609 0.0037
vn 0.0835 0.9939 0.0716
vn 0.3846 0.9069 0.1718
vn 0.5586 0.7107 0.4277
vn 0.5228 0.7999 0.2947
vn -0.1620 0.9832 -0.0838
vn 0.2327 0.9647 0.1237
vn -0.4463 0.8205 -0.3571
vn -0.1093 0.9936 -0.0278
vn -0.0293 0.9829 0.1819
vn -0.0000 0.9786 0.2059
vn 0.0221 0.9859 -0.1658
vn -0.0290 0.9808 -0.1927
vn -0.0012 1.0000 -0.0011
vn 0.0553 0.9976 0.0414
vn -0.4241 0.8995 -0.1054
vn -0.0082 0.9910 0.1334
vn 0.4512 0.8710 0.1941
vn 0.0540 0.9981 0.0304
vn 0.3310 0.7482 -0.5751
vn 0.2616 0.8383 -0.4783
s off
f 5/1/1 42/2/1 43/3/1
f 6/4/2 41/5/2 42/2/2
f 8/6/2 41/5/2 7/7/2
f 9/8/2 40/9/2 8/6/2
f 9/8/2 38/10/2 39/11/2
f 10/12/2 37/13/2 38/10/2
f 11/14/3 36/15/3 37/13/3
f 13/16/4 36/15/4 12/17/4
f 14/18/2 35/19/2 13/16/2
f 14/18/5 33/20/5 34/21/5
f 15/22/6 32/23/6 33/20/6
f 16/24/7 31/25/7 32/23/7
f 17/26/2 30/27/2 31/25/2
f 18/28/2 29/29/2 30/27/2
f 20/30/2 29/29/2 19/31/2
f 21/32/2 28/33/2 20/30/2
f 22/34/2 27/35/2 21/32/2
f 23/36/2 26/37/2 22/34/2
f 2/38/8 43/3/8 44/39/8
f 3/40/9 45/41/9 4/42/9
f 46/43/10 1/44/10 45/41/10
f 1/44/11 4/42/11 45/41/11
f 25/45/12 24/46/12 46/43/12
f 2/38/13 44/39/13 3/40/13
f 48/47/14 13/16/14 12/17/14
f 2/38/15 48/47/15 5/1/15
f 5/1/16 6/4/16 42/2/16
f 6/4/2 7/7/2 41/5/2
f 8/6/2 40/9/2 41/5/2
f 9/8/2 39/11/2 40/9/2
f 9/8/2 10/12/2 38/10/2
f 10/12/2 11/14/2 37/13/2
f 11/14/17 12/17/17 36/15/17
f 13/16/18 35/19/18 36/15/18
f 14/18/2 34/21/2 35/19/2
f 14/18/19 15/22/19 33/20/19
f 15/22/20 16/24/20 32/23/20
f 16/24/21 17/26/21 31/25/21
f 17/26/2 18/28/2 30/27/2
f 18/28/2 19/31/2 29/29/2
f 20/30/2 28/33/2 29/29/2
f 21/32/2 27/35/2 28/33/2
f 22/34/2 26/37/2 27/35/2
f 23/36/22 25/45/22 26/37/22
f 2/38/23 5/1/23 43/3/23
f 3/40/24 44/39/24 45/41/24
f 46/43/25 24/46/25 1/44/25
f 25/45/26 23/36/26 24/46/26
f 48/47/27 47/48/27 13/16/27
f 2/38/28 47/48/28 48/47/28
